HIERARCHY 
ROOT Hip 
{ 
	OFFSET 0.000000 -0.000253 0.000039 
	CHANNELS 6 Xposition Yposition Zposition Zrotation Yrotation Xrotation 
	JOINT Abdomen 
	{ 
		OFFSET 0.000000 0.000317 0.023017 
		CHANNELS 6 Xposition Yposition Zposition Zrotation Xrotation Yrotation 
		JOINT Chest 
		{ 
			OFFSET 0.000000 0.000262 0.013024 
			CHANNELS 6 Xposition Yposition Zposition Zrotation Xrotation Yrotation 
			JOINT Neck 
			{ 
				OFFSET 0.000000 0.001908 0.024722 
				CHANNELS 6 Xposition Yposition Zposition Zrotation Xrotation Yrotation 
				JOINT Head 
				{ 
					OFFSET -0.000271 -0.001525 0.007832 
					CHANNELS 6 Xposition Yposition Zposition Zrotation Xrotation Yrotation 
					End Site 
					{ 
						OFFSET 0.001112 0.000000 0.000000 
					} 
				} 
			} 
			JOINT RightShoulder 
			{ 
				OFFSET -0.002983 0.004960 0.021533 
				CHANNELS 6 Xposition Yposition Zposition Zrotation Xrotation Yrotation 
				JOINT RightArm 
				{ 
					OFFSET -0.009761 -0.001580 -0.002204 
					CHANNELS 6 Xposition Yposition Zposition Zrotation Xrotation Yrotation 
					JOINT RightForeArm 
					{ 
						OFFSET -0.031330 -0.000501 -0.001914 
						CHANNELS 6 Xposition Yposition Zposition Zrotation Xrotation Yrotation 
						JOINT RHand 
						{ 
							OFFSET -0.025118 -0.007880 0.000690 
							CHANNELS 6 Xposition Yposition Zposition Zrotation Xrotation Yrotation 
							End Site 
							{ 
								OFFSET -0.001982 -0.001562 -0.001348 
							} 
						} 
					} 
				} 
			} 
			JOINT LeftShoulder 
			{ 
				OFFSET 0.002983 0.004960 0.021533 
				CHANNELS 6 Xposition Yposition Zposition Zrotation Xrotation Yrotation 
				JOINT LeftArm 
				{ 
					OFFSET 0.009761 -0.001580 -0.002204 
					CHANNELS 6 Xposition Yposition Zposition Zrotation Xrotation Yrotation 
					JOINT LeftForeArm 
					{ 
						OFFSET 0.031330 -0.000501 -0.001914 
						CHANNELS 6 Xposition Yposition Zposition Zrotation Xrotation Yrotation 
						JOINT LHand 
						{ 
							OFFSET 0.025118 -0.007880 0.000690 
							CHANNELS 6 Xposition Yposition Zposition Zrotation Xrotation Yrotation 
							End Site 
							{ 
								OFFSET 0.001982 -0.001562 -0.001348 
							} 
						} 
					} 
				} 
			} 
		} 
	} 
	JOINT RHipJoint 
	{ 
		OFFSET -0.009761 -0.001460 0.004808 
		CHANNELS 6 Xposition Yposition Zposition Zrotation Xrotation Yrotation 
		JOINT RightUpLeg 
		{ 
			OFFSET 0.000000 0.002481 -0.001845 
			CHANNELS 6 Xposition Yposition Zposition Zrotation Xrotation Yrotation 
			JOINT RightLeg 
			{ 
				OFFSET 0.000000 0.000069 -0.040952 
				CHANNELS 6 Xposition Yposition Zposition Zrotation Xrotation Yrotation 
				JOINT RightFoot 
				{ 
					OFFSET 0.000813 0.006774 -0.050028 
					CHANNELS 6 Xposition Yposition Zposition Zrotation Xrotation Yrotation 
					End Site 
					{ 
						OFFSET -0.001248 -0.013367 -0.004403 
					} 
				} 
			} 
		} 
	} 
	JOINT LHipJoint 
	{ 
		OFFSET 0.009761 -0.001460 0.004808 
		CHANNELS 6 Xposition Yposition Zposition Zrotation Xrotation Yrotation 
		JOINT LeftUpLeg 
		{ 
			OFFSET 0.000000 0.002481 -0.001845 
			CHANNELS 6 Xposition Yposition Zposition Zrotation Xrotation Yrotation 
			JOINT LeftLeg 
			{ 
				OFFSET 0.000000 0.000069 -0.040952 
				CHANNELS 6 Xposition Yposition Zposition Zrotation Xrotation Yrotation 
				JOINT LeftFoot 
				{ 
					OFFSET -0.000813 0.006774 -0.050028 
					CHANNELS 6 Xposition Yposition Zposition Zrotation Xrotation Yrotation 
					End Site 
					{ 
						OFFSET 0.001248 -0.013367 -0.004403 
					} 
				} 
			} 
		} 
	} 
} 
MOTION 
Frames: 4 
Frame Time: 0.041667 
      0                     -0.002242                      0.092298                        -8e-06                        -1e-06                     -4.559214                             0                      0.000317                      0.023017                      0.008193                      0.912003                      0.375473                             0                      0.000262                      0.013024                     -0.026893                     19.507403                      0.277844                             0                      0.001908                      0.024722                     -3.059439                    -40.305575                     -0.711173                     -0.000271                     -0.001525                      0.007832                     91.998625                     -1.887857                   -125.163012                     -0.002983                       0.00496                      0.021533                     -87.55808                     55.020729                     90.953155                     -0.009761                      -0.00158                     -0.002204                     42.178706                    -13.188375                      2.472413                      -0.03133                     -0.000501                     -0.001914                    -16.815495                     -3.833158                     -6.453693                     -0.025118                      -0.00788                       0.00069                    -22.173096                     28.763798                     57.385166                      0.002983                       0.00496                      0.021533                     91.319902                     57.723165                   -100.715155                      0.009761                      -0.00158                     -0.002204                    -36.804283                     -18.71088                      2.032968                       0.03133                     -0.000501                     -0.001914                     16.815495                     -3.833156                      6.453693                      0.025118                      -0.00788                       0.00069                     22.173101                     28.763808                    -57.385153                     -0.009761                      -0.00146                      0.004808                    -25.153649                   -141.474132                     82.854894                             0                      0.002481                     -0.001845                    -35.887323                     21.001088                     95.204333                             0                       6.9e-05                     -0.040952                      0.931257                     -7.613295                        0.9299                      0.000813                      0.006774                     -0.050028                    167.112066                    -13.145219                    -55.507445                      0.009761                      -0.00146                      0.004808                     25.143149                   -141.464187                     -82.85389                             0                      0.002481                     -0.001845                      35.89638                     20.989002                    -95.205003                             0                       6.9e-05                     -0.040952                     -0.931273                     -7.613287                     -0.929897                     -0.000813                      0.006774                     -0.050028                   -167.375357                    -17.976809                     54.685534 
      0                     -0.002242                      0.092298                        -8e-06                        -1e-06                     -4.559214                             0                      0.000317                      0.023017                      0.008193                      0.912003                      0.375473                             0                      0.000262                      0.013024                     -0.026893                     19.507403                      0.277844                             0                      0.001908                      0.024722                     -3.059439                    -40.305575                     -0.711173                     -0.000271                     -0.001525                      0.007832                     91.998625                     -1.887857                   -125.163012                     -0.002983                       0.00496                      0.021533                     -87.55808                     55.020729                     90.953155                     -0.009761                      -0.00158                     -0.002204                     42.178706                    -13.188375                      2.472413                      -0.03133                     -0.000501                     -0.001914                    -16.815495                     -3.833158                     -6.453693                     -0.025118                      -0.00788                       0.00069                    -22.173096                     28.763798                     57.385166                      0.002983                       0.00496                      0.021533                     91.319902                     57.723165                   -100.715155                      0.009761                      -0.00158                     -0.002204                    -36.804283                     -18.71088                      2.032968                       0.03133                     -0.000501                     -0.001914                     16.815495                     -3.833156                      6.453693                      0.025118                      -0.00788                       0.00069                     22.173101                     28.763808                    -57.385153                     -0.009761                      -0.00146                      0.004808                    -25.153649                   -141.474132                     82.854894                             0                      0.002481                     -0.001845                    -35.887323                     21.001088                     95.204333                             0                       6.9e-05                     -0.040952                      0.931257                     -7.613295                        0.9299                      0.000813                      0.006774                     -0.050028                    167.112066                    -13.145219                    -55.507445                      0.009761                      -0.00146                      0.004808                     25.143149                   -141.464187                     -82.85389                             0                      0.002481                     -0.001845                      35.89638                     20.989002                    -95.205003                             0                       6.9e-05                     -0.040952                     -0.931273                     -7.613287                     -0.929897                     -0.000813                      0.006774                     -0.050028                   -167.375357                    -17.976809                     54.685534 
 0.6961                     -0.023642                      0.056998                        -8e-06                        -1e-06                     -4.559214                             0                      0.000317                      0.023017                      0.008193                      0.912003                      0.375473                             0                      0.000262                      0.013024                     -0.026893                     19.507403                      0.277844                             0                      0.001908                      0.024722                     -3.059439                    -40.305575                     -0.711173                     -0.000271                     -0.001525                      0.007832                     91.998625                     -1.887857                   -125.163012                     -0.002983                       0.00496                      0.021533                     -87.55808                     55.020729                     90.953155                     -0.009761                      -0.00158                     -0.002204                     42.178706                    -13.188375                      2.472413                      -0.03133                     -0.000501                     -0.001914                    -16.815495                     -3.833158                     -6.453693                     -0.025118                      -0.00788                       0.00069                    -22.173096                     28.763798                     57.385166                      0.002983                       0.00496                      0.021533                     91.319902                     57.723165                   -100.715155                      0.009761                      -0.00158                     -0.002204                    -36.804283                     -18.71088                      2.032968                       0.03133                     -0.000501                     -0.001914                     16.815495                     -3.833156                      6.453693                      0.025118                      -0.00788                       0.00069                     22.173101                     28.763808                    -57.385153                     -0.009761                      -0.00146                      0.004808                    -25.153649                   -141.474132                     82.854894                             0                      0.002481                     -0.001845                    -35.887323                     21.001088                     95.204333                             0                       6.9e-05                     -0.040952                      0.931257                     -7.613295                        0.9299                      0.000813                      0.006774                     -0.050028                    167.112066                    -13.145219                    -55.507445                      0.009761                      -0.00146                      0.004808                     25.143149                   -141.464187                     -82.85389                             0                      0.002481                     -0.001845                      35.89638                     20.989002                    -95.205003                             0                       6.9e-05                     -0.040952                     -0.931273                     -7.613287                     -0.929897                     -0.000813                      0.006774                     -0.050028                   -167.375357                    -17.976809                     54.685534 
  1.422                      0.024858                      0.030098                     92.532985                      5.937135                     10.108058                             0                      0.000317                      0.023017                      0.486772                     14.160901                    -10.875262                             0                      0.000262                      0.013024                      1.131207                     10.009479                      -1.55856                             0                      0.001908                      0.024721                     -1.588682                    -61.955253                      4.415952                     -0.000271                     -0.001525                      0.007832                     93.696344                        5.8521                   -128.065774                     -0.002983                       0.00496                      0.021533                     -67.62071                     46.579862                     63.675566                     -0.009761                      -0.00158                     -0.002204                    122.612223                     38.550257                    -16.746287                      -0.03133                     -0.000501                     -0.001914                    -37.302976                    -23.401621                     33.546973                     -0.025118                      -0.00788                       0.00069                    -18.291938                     18.266405                     48.582531                      0.002983                       0.00496                      0.021533                     59.428178                     57.236548                    -64.910518                      0.009761                      -0.00158                     -0.002204                   -113.604726                     43.447042                      0.454941                       0.03133                     -0.000501                     -0.001914                     41.939848                    -44.053446                    -64.157394                      0.025118                      -0.00788                       0.00069                     28.304681                     38.247495                    -67.823703                     -0.009761                      -0.00146                      0.004808                     -25.15365                   -141.474132                     82.854901                             0                      0.002481                     -0.001845                      -66.2043                     14.320932                    126.299541                             0                       6.9e-05                     -0.040952                      1.123803                    -34.774648                      1.447572                      0.000813                      0.006774                     -0.050028                    160.858318                    -28.665249                    -59.945551                      0.009761                      -0.00146                      0.004808                     25.143151                   -141.464173                    -82.853897                             0                      0.002481                     -0.001845                     45.916773                     13.969017                    -95.205501                             0                       6.9e-05                     -0.040952                     -2.719027                    -70.148761                     -3.364183                     -0.000813                      0.006774                     -0.050028                   -154.133532                    -41.088273                     62.555353 
